<svg width="60" height="59" viewBox="0 0 60 59" fill="none" xmlns="http://www.w3.org/2000/svg">
<g clip-path="url(#clip0)">
<path d="M59.0033 29.7499C59.0033 13.5959 45.9075 0.500244 29.7521 0.500244C13.5967 0.500244 0.502441 13.5959 0.502441 29.7499C0.502441 45.9039 13.5981 58.9996 29.7521 58.9996C45.9061 58.9996 59.0033 45.9054 59.0033 29.7499ZM44.8583 16.2855C44.8583 18.5453 43.0269 20.3766 40.7672 20.3766C40.6388 20.3766 40.5179 20.3513 40.3925 20.3393C40.506 21.3737 40.4731 22.4304 40.4731 23.4797C40.4731 25.8887 40.4731 28.2962 40.4731 30.7051C40.4731 32.3962 40.4731 34.0858 40.4731 35.7769C40.4731 36.6067 39.7746 37.2963 38.9477 37.3022C35.0731 37.3351 31.1984 37.3634 27.3237 37.3873C31.3253 38.9366 35.3402 40.4486 39.3537 41.962C40.894 42.5426 40.7702 44.9576 38.9477 44.9591C32.4417 44.965 25.9356 44.9725 19.4296 44.9785C17.4654 44.98 17.4624 41.9292 19.4296 41.9262C23.1654 41.9217 26.9028 41.9187 30.6387 41.9143C26.7521 40.4351 22.8729 38.9351 19.0236 37.3634C17.5251 36.7515 17.5758 34.3679 19.4296 34.3664C25.4267 34.3619 31.4253 34.3112 37.4224 34.2619C37.4224 31.2977 37.4224 28.3335 37.4224 25.3692C37.4224 24.0409 37.4403 22.711 37.4224 21.3826C37.4059 20.2199 37.1671 18.805 36.0865 18.1438C34.9253 17.4318 32.9163 17.7975 31.6029 17.796C27.5446 17.793 23.4863 17.8318 19.4296 17.8124C17.4669 17.8035 17.4624 14.7512 19.4296 14.7601C23.2968 14.7795 27.1655 14.7437 31.0327 14.7437C32.7686 14.7437 34.7447 14.5034 36.4298 14.9855C36.5776 15.0273 36.7179 15.084 36.8582 15.1393C37.3567 13.4422 38.9075 12.1959 40.7657 12.1959C43.0269 12.1959 44.8583 14.0258 44.8583 16.2855ZM21.0445 29.3096C25.3834 29.3365 29.7237 29.3663 34.0626 29.3663C36.0268 29.3663 36.0298 32.4186 34.0626 32.4186C29.2148 32.4186 24.367 32.3858 19.5191 32.3559C18.6937 32.3514 17.9937 31.6604 17.9937 30.8305C17.9937 27.6573 17.9937 24.4857 17.9937 21.3125C17.9937 20.4871 18.6922 19.7871 19.5191 19.7871C24.4968 19.7871 29.4745 19.7781 34.4507 19.8438C36.4134 19.8692 36.4179 22.9215 34.4507 22.8961C29.982 22.8379 25.5132 22.8394 21.0445 22.8394C21.0445 24.9961 21.0445 27.1529 21.0445 29.3096Z" fill="#FDF9F9"/>
<path d="M40.7687 20.3768C40.6403 20.3768 40.5194 20.3514 40.394 20.3394C40.3134 19.6021 40.1612 18.8767 39.8627 18.1722C39.2851 16.814 38.2388 15.6797 36.8611 15.1394C37.3597 13.4423 38.9104 12.196 40.7687 12.196C43.0284 12.196 44.8598 14.0274 44.8598 16.2871C44.8598 18.5469 43.0269 20.3768 40.7687 20.3768Z" fill="#020202"/>
<path d="M40.7687 20.3768C40.6403 20.3768 40.5194 20.3514 40.394 20.3394C40.3134 19.6021 40.1612 18.8767 39.8627 18.1722C39.2851 16.814 38.2388 15.6797 36.8611 15.1394C37.3597 13.4423 38.9104 12.196 40.7687 12.196C43.0284 12.196 44.8598 14.0274 44.8598 16.2871C44.8598 18.5469 43.0269 20.3768 40.7687 20.3768Z" fill="url(#paint0_linear)"/>
</g>
<defs>
<linearGradient id="paint0_linear" x1="40.8599" y1="20.3761" x2="40.8599" y2="12.1953" gradientUnits="userSpaceOnUse">
<stop offset="5.43435e-07" stop-color="#F7931E"/>
<stop offset="0.4922" stop-color="#F7931E"/>
<stop offset="1" stop-color="#FF0000"/>
</linearGradient>
<clipPath id="clip0">
<rect width="58.5008" height="58.5008" fill="white" transform="translate(0.502441 0.500244)"/>
</clipPath>
</defs>
</svg>
