<svg width="156" height="30" viewBox="0 0 156 30" fill="none" xmlns="http://www.w3.org/2000/svg">
<path d="M12.7066 19.8834H21.5162V21.1213H12.7066V19.8834Z" fill="#F1F1F1"/>
<path d="M6.41403 11.2182H21.5162V12.4561H6.41403V11.2182Z" fill="#F1F1F1"/>
<path d="M10.8188 3.79085H21.5162V5.02874H10.8188V3.79085Z" fill="#F1F1F1"/>
<path d="M61.9174 9.77805L55.9524 5.82419L45.2115 21.5017L43.9753 20.6823L54.7162 5.00478L48.7151 1.02706L49.4188 0L62.6211 8.75098L61.9174 9.77805Z" fill="#F1F1F1"/>
<path d="M5.03658 10.9285C5.94355 10.9285 6.75404 10.8241 7.46804 10.6153C8.19168 10.397 8.79955 10.0886 9.29163 9.69C9.79335 9.2914 10.1745 8.81213 10.435 8.2522C10.6955 7.69226 10.8258 7.06114 10.8258 6.35885C10.8258 4.92579 10.3482 3.86286 9.39294 3.17005C8.44737 2.47725 7.06279 2.13085 5.2392 2.13085H1.49071V10.9285H5.03658ZM14.1256 21.1213H12.852C12.6879 21.1213 12.548 21.0975 12.4323 21.0501C12.3261 20.9931 12.2248 20.8935 12.1283 20.7511L5.55761 12.5798C5.48042 12.4755 5.39841 12.3853 5.31157 12.3094C5.23438 12.2334 5.14272 12.1765 5.03658 12.1385C4.9401 12.0911 4.81949 12.0579 4.67476 12.0389C4.53968 12.0199 4.37083 12.0104 4.16821 12.0104H1.49071V21.1213H0V0.977756H5.2392C7.59347 0.977756 9.35434 1.42855 10.5218 2.33015C11.699 3.22225 12.2875 4.53668 12.2875 6.27343C12.2875 7.04216 12.1524 7.74446 11.8823 8.38032C11.6121 9.01618 11.2214 9.57611 10.71 10.0601C10.2082 10.5347 9.59556 10.9238 8.87191 11.2275C8.15791 11.5311 7.35225 11.7352 6.45493 11.8396C6.6865 11.9819 6.89394 12.1718 7.07727 12.409L14.1256 21.1213Z" fill="#F1F1F1"/>
<path d="M77.4013 10.9285C78.3082 10.9285 79.1187 10.8241 79.8327 10.6153C80.5564 10.397 81.1642 10.0886 81.6563 9.69C82.158 9.2914 82.5392 8.81213 82.7997 8.2522C83.0602 7.69226 83.1904 7.06114 83.1904 6.35885C83.1904 4.92579 82.7128 3.86286 81.7576 3.17005C80.812 2.47725 79.4275 2.13085 77.6039 2.13085H73.8554V10.9285H77.4013ZM86.4903 21.1213H85.2166C85.0526 21.1213 84.9127 21.0975 84.7969 21.0501C84.6908 20.9931 84.5895 20.8935 84.493 20.7511L77.9223 12.5798C77.8451 12.4755 77.7631 12.3853 77.6762 12.3094C77.5991 12.2334 77.5074 12.1765 77.4013 12.1385C77.3048 12.0911 77.1842 12.0579 77.0394 12.0389C76.9044 12.0199 76.7355 12.0104 76.5329 12.0104H73.8554V21.1213H72.3647V0.977756H77.6039C79.9582 0.977756 81.719 1.42855 82.8865 2.33015C84.0636 3.22225 84.6522 4.53668 84.6522 6.27343C84.6522 7.04216 84.5171 7.74446 84.247 8.38032C83.9768 9.01618 83.586 9.57611 83.0747 10.0601C82.5729 10.5347 81.9602 10.9238 81.2366 11.2275C80.5226 11.5311 79.7169 11.7352 78.8196 11.8396C79.0512 11.9819 79.2586 12.1718 79.4419 12.409L86.4903 21.1213Z" fill="#F1F1F1"/>
<path d="M119.632 0.977756V21.1213H118.937C118.812 21.1213 118.706 21.1023 118.619 21.0643C118.542 21.0169 118.465 20.9409 118.387 20.8365L105.087 3.35512C105.116 3.63983 105.13 3.91031 105.13 4.16655V21.1213H103.828V0.977756H104.566C104.701 0.977756 104.802 0.996737 104.87 1.0347C104.947 1.06317 105.029 1.13435 105.116 1.24823L118.387 18.687C118.358 18.4022 118.344 18.1318 118.344 17.8755V0.977756H119.632Z" fill="#F1F1F1"/>
<path d="M119.508 10.4234C119.508 11.9799 119.745 13.3797 120.217 14.623C120.69 15.8662 121.356 16.9244 122.215 17.7975C123.073 18.6707 124.106 19.3397 125.312 19.8048C126.508 20.2698 127.83 20.5023 129.277 20.5023H136.76V0.358813H129.277C127.83 0.358813 126.508 0.591329 125.312 1.05636C124.106 1.52139 123.073 2.19047 122.215 3.0636C121.356 3.93672 120.69 4.9949 120.217 6.23815C119.745 7.4814 119.508 8.8765 119.508 10.4234ZM121.042 10.4234C121.042 9.01886 121.24 7.76612 121.636 6.66522C122.031 5.56433 122.591 4.63427 123.315 3.87503C124.038 3.11579 124.907 2.53687 125.92 2.13827C126.933 1.73968 128.052 1.54038 129.277 1.54038H135.269V19.3208H129.277C128.052 19.3208 126.933 19.1215 125.92 18.7229C124.907 18.3243 124.038 17.7453 123.315 16.9861C122.591 16.2269 122.031 15.2968 121.636 14.1959C121.24 13.095 121.042 11.8375 121.042 10.4234Z" fill="#F1F1F1"/>
<path d="M22.2562 2.18779V10.658H31.5913V11.8681H22.2562V21.1213H20.7655V0.977756H33.0386V2.18779H22.2562Z" fill="#F1F1F1"/>
<path d="M35.6491 3.60497L36.793 3.08888L45.3509 21.4409L44.207 21.957L35.6491 3.60497Z" fill="#F1F1F1"/>
<path d="M95.6541 2.83881L96.798 2.32272L105.356 20.6747L104.212 21.1908L95.6541 2.83881Z" fill="#F1F1F1"/>
<path d="M36.2055 2.70019L37.2874 3.33266L26.1481 21.7669L25.0663 21.1344L36.2055 2.70019Z" fill="#F1F1F1"/>
<path d="M96.2105 1.93402L97.2924 2.5665L86.1531 21.0007L85.0713 20.3682L96.2105 1.93402Z" fill="#F1F1F1"/>
<path d="M72.3087 19.7076C72.3087 21.264 72.0723 22.6781 71.5995 23.9498C71.1267 25.2121 70.461 26.294 69.6022 27.1956C68.7435 28.0877 67.7111 28.7805 66.505 29.274C65.3086 29.758 63.9867 30 62.5394 30C61.0922 30 59.7703 29.758 58.5739 29.274C57.3774 28.7805 56.3498 28.0877 55.4911 27.1956C54.6324 26.294 53.9666 25.2121 53.4939 23.9498C53.0211 22.6781 52.7847 21.264 52.7847 19.7076C52.7847 18.1607 53.0211 16.7561 53.4939 15.4938C53.9666 14.2221 54.6324 13.1402 55.4911 12.2481C56.3498 11.3465 57.3774 10.6489 58.5739 10.1554C59.7703 9.66194 61.0922 9.41519 62.5394 9.41519C63.9867 9.41519 65.3086 9.66194 66.505 10.1554C67.7111 10.6395 68.7435 11.3323 69.6022 12.2339C70.461 13.1355 71.1267 14.2221 71.5995 15.4938C72.0723 16.7561 72.3087 18.1607 72.3087 19.7076ZM70.7745 19.7076C70.7745 18.303 70.5768 17.0408 70.1812 15.9209C69.7856 14.801 69.2259 13.852 68.5023 13.0738C67.7786 12.2955 66.9103 11.7024 65.8972 11.2943C64.8841 10.8767 63.7648 10.6679 62.5394 10.6679C61.3237 10.6679 60.2093 10.8767 59.1962 11.2943C58.1831 11.7024 57.3099 12.2955 56.5766 13.0738C55.853 13.852 55.2885 14.801 54.8833 15.9209C54.4877 17.0408 54.2899 18.303 54.2899 19.7076C54.2899 21.1217 54.4877 22.3887 54.8833 23.5085C55.2885 24.6189 55.853 25.5632 56.5766 26.3414C57.3099 27.1196 58.1831 27.7128 59.1962 28.1209C60.2093 28.529 61.3237 28.733 62.5394 28.733C63.7648 28.733 64.8841 28.529 65.8972 28.1209C66.9103 27.7128 67.7786 27.1196 68.5023 26.3414C69.2259 25.5632 69.7856 24.6189 70.1812 23.5085C70.5768 22.3887 70.7745 21.1217 70.7745 19.7076Z" fill="#F1F1F1"/>
<path d="M156 15.375C156 16.9314 155.764 18.3455 155.291 19.6172C154.818 20.8795 154.152 21.9614 153.294 22.863C152.435 23.7551 151.402 24.4479 150.196 24.9414C149 25.4254 147.678 25.6674 146.231 25.6674C144.783 25.6674 143.462 25.4254 142.265 24.9414C141.069 24.4479 140.041 23.7551 139.182 22.863C138.324 21.9614 137.658 20.8795 137.185 19.6172C136.712 18.3455 136.476 16.9314 136.476 15.375C136.476 13.828 136.712 12.4235 137.185 11.1612C137.658 9.88951 138.324 8.80759 139.182 7.91549C140.041 7.0139 141.069 6.31635 142.265 5.82284C143.462 5.32934 144.783 5.08259 146.231 5.08259C147.678 5.08259 149 5.32934 150.196 5.82284C151.402 6.30686 152.435 6.99966 153.294 7.90125C154.152 8.80285 154.818 9.88951 155.291 11.1612C155.764 12.4235 156 13.828 156 15.375ZM154.466 15.375C154.466 13.9704 154.268 12.7082 153.872 11.5883C153.477 10.4684 152.917 9.51938 152.194 8.74116C151.47 7.96294 150.602 7.36979 149.588 6.9617C148.575 6.54412 147.456 6.33533 146.231 6.33533C145.015 6.33533 143.901 6.54412 142.888 6.9617C141.874 7.36979 141.001 7.96294 140.268 8.74116C139.544 9.51938 138.98 10.4684 138.575 11.5883C138.179 12.7082 137.981 13.9704 137.981 15.375C137.981 16.7891 138.179 18.056 138.575 19.1759C138.98 20.2863 139.544 21.2306 140.268 22.0088C141.001 22.787 141.874 23.3802 142.888 23.7883C143.901 24.1964 145.015 24.4004 146.231 24.4004C147.456 24.4004 148.575 24.1964 149.588 23.7883C150.602 23.3802 151.47 22.787 152.194 22.0088C152.917 21.2306 153.477 20.2863 153.872 19.1759C154.268 18.056 154.466 16.7891 154.466 15.375Z" fill="#F1F1F1"/>
</svg>
